# Torn Apart tree variant (preview_tree.py)
v -0.23902 0.23997 0.02201
v -0.23902 -0.24003 0.02129
v -0.06214 -0.20232 1.53088
v -0.06214 0.19768 1.53148
v -0.23902 -0.24003 0.02129
v 0.23902 -0.23997 -0.02201
v 0.33623 -0.20226 1.49480
v -0.06214 -0.20232 1.53088
v 0.23902 -0.23997 -0.02201
v 0.23902 0.24003 -0.02129
v 0.33623 0.19773 1.49540
v 0.33623 -0.20226 1.49480
v 0.23902 0.24003 -0.02129
v -0.23902 0.23997 0.02201
v -0.06214 0.19768 1.53148
v 0.33623 0.19773 1.49540
v -0.06275 0.19786 1.50870
v -0.06275 -0.20123 1.53559
v 0.04572 -0.05951 3.04424
v 0.04572 0.25977 3.02273
v -0.06275 -0.20123 1.53559
v 0.33684 -0.20245 1.51758
v 0.36539 -0.06048 3.02983
v 0.04572 -0.05951 3.04424
v 0.33684 -0.20245 1.51758
v 0.33684 0.19665 1.49069
v 0.36539 0.25880 3.00832
v 0.36539 -0.06048 3.02983
v 0.33684 0.19665 1.49069
v -0.06275 0.19786 1.50870
v 0.04572 0.25977 3.02273
v 0.36539 0.25880 3.00832
v 0.04588 0.25968 3.01659
v 0.04588 -0.05785 3.05625
v 0.18341 0.17055 4.56190
v 0.18341 0.40870 4.53215
v 0.04588 -0.05785 3.05625
v 0.36523 -0.06039 3.03597
v 0.42292 0.16865 4.54669
v 0.18341 0.17055 4.56190
v 0.36523 -0.06039 3.03597
v 0.36523 0.25715 2.99630
v 0.42292 0.40679 4.51694
v 0.42292 0.16865 4.54669
v 0.36523 0.25715 2.99630
v 0.04588 0.25968 3.01659
v 0.18341 0.40870 4.53215
v 0.42292 0.40679 4.51694
v 0.18486 0.40105 4.58606
v 0.18486 0.16722 4.53197
v 0.48834 -0.14233 6.04759
v 0.48834 0.01356 6.08365
v 0.18486 0.16722 4.53197
v 0.42147 0.17629 4.49278
v 0.64608 -0.13628 6.02146
v 0.48834 -0.14233 6.04759
v 0.42147 0.17629 4.49278
v 0.42147 0.41012 4.54687
v 0.64608 0.01960 6.05752
v 0.64608 -0.13628 6.02146
v 0.42147 0.41012 4.54687
v 0.18486 0.40105 4.58606
v 0.48834 0.01356 6.08365
v 0.64608 0.01960 6.05752
v 0.66740 -0.01763 6.02340
v 0.51646 0.03546 6.02340
v 0.73832 0.54573 7.55112
v 0.81379 0.51919 7.55112
v 0.51646 0.03546 6.02340
v 0.46703 -0.10510 6.08171
v 0.71360 0.47545 7.58027
v 0.73832 0.54573 7.55112
v 0.46703 -0.10510 6.08171
v 0.61796 -0.15818 6.08171
v 0.78907 0.44891 7.58027
v 0.71360 0.47545 7.58027
v 0.61796 -0.15818 6.08171
v 0.66740 -0.01763 6.02340
v 0.81379 0.51919 7.55112
v 0.78907 0.44891 7.58027
v 0.17121 0.14165 2.25738
v 0.24517 -0.00092 2.25738
v -0.55061 -0.38208 1.80614
v -0.59868 -0.28940 1.80614
v 0.24517 -0.00092 2.25738
v 0.17665 -0.03647 2.39824
v -0.59515 -0.40518 1.89769
v -0.55061 -0.38208 1.80614
v 0.17665 -0.03647 2.39824
v 0.10269 0.10611 2.39824
v -0.64322 -0.31251 1.89769
v -0.59515 -0.40518 1.89769
v 0.10269 0.10611 2.39824
v 0.17121 0.14165 2.25738
v -0.59868 -0.28940 1.80614
v -0.64322 -0.31251 1.89769
v 0.12693 0.12405 2.38733
v 0.25822 0.03721 2.38733
v -0.35805 -0.84458 2.09182
v -0.44338 -0.78813 2.09182
v 0.25822 0.03721 2.38733
v 0.23315 -0.00069 2.53803
v -0.37434 -0.86921 2.18978
v -0.35805 -0.84458 2.09182
v 0.23315 -0.00069 2.53803
v 0.10186 0.08615 2.53803
v -0.45968 -0.81277 2.18978
v -0.37434 -0.86921 2.18978
v 0.10186 0.08615 2.53803
v 0.12693 0.12405 2.38733
v -0.44338 -0.78813 2.09182
v -0.45968 -0.81277 2.18978
v -0.58030 -0.29200 1.80590
v -0.56477 -0.39524 1.80590
v -1.44519 -0.49927 1.36295
v -1.45236 -0.45162 1.36295
v -0.56477 -0.39524 1.80590
v -0.61353 -0.40258 1.89793
v -1.46769 -0.50265 1.40542
v -1.44519 -0.49927 1.36295
v -0.61353 -0.40258 1.89793
v -0.62906 -0.29934 1.89793
v -1.47486 -0.45500 1.40542
v -1.46769 -0.50265 1.40542
v -0.62906 -0.29934 1.89793
v -0.58030 -0.29200 1.80590
v -1.45236 -0.45162 1.36295
v -1.47486 -0.45500 1.40542
v -0.44467 -0.78511 2.09547
v -0.35248 -0.82950 2.09547
v -0.81143 -1.71918 1.60304
v -0.85398 -1.69869 1.60304
v -0.35248 -0.82950 2.09547
v -0.37306 -0.87223 2.18613
v -0.82093 -1.73890 1.64489
v -0.81143 -1.71918 1.60304
v -0.37306 -0.87223 2.18613
v -0.46524 -0.82785 2.18613
v -0.86348 -1.71842 1.64489
v -0.82093 -1.73890 1.64489
v -0.46524 -0.82785 2.18613
v -0.44467 -0.78511 2.09547
v -0.85398 -1.69869 1.60304
v -0.86348 -1.71842 1.64489
v -0.31952 -0.67344 2.16095
v -0.34841 -0.72032 2.16095
v -0.87421 -0.38158 2.42513
v -0.85847 -0.35604 2.42513
v -0.34841 -0.72032 2.16095
v -0.33097 -0.73107 2.21206
v -0.86471 -0.38744 2.45298
v -0.87421 -0.38158 2.42513
v -0.33097 -0.73107 2.21206
v -0.30208 -0.68419 2.21206
v -0.84897 -0.36190 2.45298
v -0.86471 -0.38744 2.45298
v -0.30208 -0.68419 2.21206
v -0.31952 -0.67344 2.16095
v -0.85847 -0.35604 2.42513
v -0.84897 -0.36190 2.45298
v -0.74080 -1.49652 1.76917
v -0.74080 -1.45673 1.76506
v -0.86428 -1.55824 0.83157
v -0.86428 -1.58808 0.83465
v -0.74080 -1.45673 1.76506
v -0.70117 -1.45729 1.75966
v -0.83456 -1.55866 0.82752
v -0.86428 -1.55824 0.83157
v -0.70117 -1.45729 1.75966
v -0.70117 -1.49708 1.76377
v -0.83456 -1.58850 0.83060
v -0.83456 -1.55866 0.82752
v -0.70117 -1.49708 1.76377
v -0.74080 -1.49652 1.76917
v -0.86428 -1.58808 0.83465
v -0.83456 -1.58850 0.83060
v -0.06214 0.19768 1.53148
v -0.06214 -0.20232 1.53088
v 0.33623 -0.20226 1.49480
v 0.33623 0.19773 1.49540
v 0.04572 0.25977 3.02273
v 0.04572 -0.05951 3.04424
v 0.36539 -0.06048 3.02983
v 0.36539 0.25880 3.00832
v 0.18341 0.40870 4.53215
v 0.18341 0.17055 4.56190
v 0.42292 0.16865 4.54669
v 0.42292 0.40679 4.51694
v 0.48834 0.01356 6.08365
v 0.48834 -0.14233 6.04759
v 0.64608 -0.13628 6.02146
v 0.64608 0.01960 6.05752
v 0.81379 0.51919 7.55112
v 0.73832 0.54573 7.55112
v 0.71360 0.47545 7.58027
v 0.78907 0.44891 7.58027
v -0.59868 -0.28940 1.80614
v -0.55061 -0.38208 1.80614
v -0.59515 -0.40518 1.89769
v -0.64322 -0.31251 1.89769
v -0.44338 -0.78813 2.09182
v -0.35805 -0.84458 2.09182
v -0.37434 -0.86921 2.18978
v -0.45968 -0.81277 2.18978
v -1.45236 -0.45162 1.36295
v -1.44519 -0.49927 1.36295
v -1.46769 -0.50265 1.40542
v -1.47486 -0.45500 1.40542
v -0.85398 -1.69869 1.60304
v -0.81143 -1.71918 1.60304
v -0.82093 -1.73890 1.64489
v -0.86348 -1.71842 1.64489
v -0.85847 -0.35604 2.42513
v -0.87421 -0.38158 2.42513
v -0.86471 -0.38744 2.45298
v -0.84897 -0.36190 2.45298
v -0.86428 -1.58808 0.83465
v -0.86428 -1.55824 0.83157
v -0.83456 -1.55866 0.82752
v -0.83456 -1.58850 0.83060
v -0.43846 -0.52054 2.07224
v -1.18594 0.01550 2.07224
v -1.18594 0.01550 2.99206
v -0.43846 -0.52054 2.99206
v -0.39322 -0.06286 2.07224
v -1.23118 -0.44218 2.07224
v -1.23118 -0.44218 2.99206
v -0.39322 -0.06286 2.99206
v -0.76696 0.20516 2.07224
v -0.85744 -0.71020 2.07224
v -0.85744 -0.71020 2.99206
v -0.76696 0.20516 2.99206
v -0.57559 -1.71796 0.44846
v -1.36311 -1.20256 0.44846
v -1.36311 -1.20256 1.38965
v -0.57559 -1.71796 1.38965
v -0.54930 -1.24810 0.44846
v -1.38941 -1.67242 0.44846
v -1.38941 -1.67242 1.38965
v -0.54930 -1.24810 1.38965
v -0.94306 -0.99040 0.44846
v -0.99565 -1.93012 0.44846
v -0.99565 -1.93012 1.38965
v -0.94306 -0.99040 1.38965
v -0.17044 -0.14679 2.69312
v -0.91792 0.38924 2.69312
v -1.45396 -0.35824 2.69312
v -0.70647 -0.89428 2.69312
v -0.31789 -1.32420 1.08377
v -1.10541 -0.80880 1.08377
v -1.62081 -1.59632 1.08377
v -0.83329 -2.11172 1.08377
vt 0.00000 0.00000
vt 0.50000 0.00000
vt 0.50000 1.00000
vt 0.00000 1.00000
vt 0.00000 0.00000
vt 0.50000 0.00000
vt 0.50000 1.00000
vt 0.00000 1.00000
vt 0.00000 0.00000
vt 0.50000 0.00000
vt 0.50000 1.00000
vt 0.00000 1.00000
vt 0.00000 0.00000
vt 0.50000 0.00000
vt 0.50000 1.00000
vt 0.00000 1.00000
vt 0.00000 0.00000
vt 0.50000 0.00000
vt 0.50000 1.00000
vt 0.00000 1.00000
vt 0.00000 0.00000
vt 0.50000 0.00000
vt 0.50000 1.00000
vt 0.00000 1.00000
vt 0.00000 0.00000
vt 0.50000 0.00000
vt 0.50000 1.00000
vt 0.00000 1.00000
vt 0.00000 0.00000
vt 0.50000 0.00000
vt 0.50000 1.00000
vt 0.00000 1.00000
vt 0.00000 0.00000
vt 0.50000 0.00000
vt 0.50000 1.00000
vt 0.00000 1.00000
vt 0.00000 0.00000
vt 0.50000 0.00000
vt 0.50000 1.00000
vt 0.00000 1.00000
vt 0.00000 0.00000
vt 0.50000 0.00000
vt 0.50000 1.00000
vt 0.00000 1.00000
vt 0.00000 0.00000
vt 0.50000 0.00000
vt 0.50000 1.00000
vt 0.00000 1.00000
vt 0.00000 0.00000
vt 0.50000 0.00000
vt 0.50000 1.00000
vt 0.00000 1.00000
vt 0.00000 0.00000
vt 0.50000 0.00000
vt 0.50000 1.00000
vt 0.00000 1.00000
vt 0.00000 0.00000
vt 0.50000 0.00000
vt 0.50000 1.00000
vt 0.00000 1.00000
vt 0.00000 0.00000
vt 0.50000 0.00000
vt 0.50000 1.00000
vt 0.00000 1.00000
vt 0.00000 0.00000
vt 0.50000 0.00000
vt 0.50000 1.00000
vt 0.00000 1.00000
vt 0.00000 0.00000
vt 0.50000 0.00000
vt 0.50000 1.00000
vt 0.00000 1.00000
vt 0.00000 0.00000
vt 0.50000 0.00000
vt 0.50000 1.00000
vt 0.00000 1.00000
vt 0.00000 0.00000
vt 0.50000 0.00000
vt 0.50000 1.00000
vt 0.00000 1.00000
vt 0.00000 0.00000
vt 0.50000 0.00000
vt 0.50000 1.00000
vt 0.00000 1.00000
vt 0.00000 0.00000
vt 0.50000 0.00000
vt 0.50000 1.00000
vt 0.00000 1.00000
vt 0.00000 0.00000
vt 0.50000 0.00000
vt 0.50000 1.00000
vt 0.00000 1.00000
vt 0.00000 0.00000
vt 0.50000 0.00000
vt 0.50000 1.00000
vt 0.00000 1.00000
vt 0.00000 0.00000
vt 0.50000 0.00000
vt 0.50000 1.00000
vt 0.00000 1.00000
vt 0.00000 0.00000
vt 0.50000 0.00000
vt 0.50000 1.00000
vt 0.00000 1.00000
vt 0.00000 0.00000
vt 0.50000 0.00000
vt 0.50000 1.00000
vt 0.00000 1.00000
vt 0.00000 0.00000
vt 0.50000 0.00000
vt 0.50000 1.00000
vt 0.00000 1.00000
vt 0.00000 0.00000
vt 0.50000 0.00000
vt 0.50000 1.00000
vt 0.00000 1.00000
vt 0.00000 0.00000
vt 0.50000 0.00000
vt 0.50000 1.00000
vt 0.00000 1.00000
vt 0.00000 0.00000
vt 0.50000 0.00000
vt 0.50000 1.00000
vt 0.00000 1.00000
vt 0.00000 0.00000
vt 0.50000 0.00000
vt 0.50000 1.00000
vt 0.00000 1.00000
vt 0.00000 0.00000
vt 0.50000 0.00000
vt 0.50000 1.00000
vt 0.00000 1.00000
vt 0.00000 0.00000
vt 0.50000 0.00000
vt 0.50000 1.00000
vt 0.00000 1.00000
vt 0.00000 0.00000
vt 0.50000 0.00000
vt 0.50000 1.00000
vt 0.00000 1.00000
vt 0.00000 0.00000
vt 0.50000 0.00000
vt 0.50000 1.00000
vt 0.00000 1.00000
vt 0.00000 0.00000
vt 0.50000 0.00000
vt 0.50000 1.00000
vt 0.00000 1.00000
vt 0.00000 0.00000
vt 0.50000 0.00000
vt 0.50000 1.00000
vt 0.00000 1.00000
vt 0.00000 0.00000
vt 0.50000 0.00000
vt 0.50000 1.00000
vt 0.00000 1.00000
vt 0.00000 0.00000
vt 0.50000 0.00000
vt 0.50000 1.00000
vt 0.00000 1.00000
vt 0.00000 0.00000
vt 0.50000 0.00000
vt 0.50000 1.00000
vt 0.00000 1.00000
vt 0.00000 0.00000
vt 0.50000 0.00000
vt 0.50000 1.00000
vt 0.00000 1.00000
vt 0.00000 0.00000
vt 0.50000 0.00000
vt 0.50000 1.00000
vt 0.00000 1.00000
vt 0.00000 0.00000
vt 0.50000 0.00000
vt 0.50000 1.00000
vt 0.00000 1.00000
vt 0.25000 0.50000
vt 0.25000 0.50000
vt 0.25000 0.50000
vt 0.25000 0.50000
vt 0.25000 0.50000
vt 0.25000 0.50000
vt 0.25000 0.50000
vt 0.25000 0.50000
vt 0.25000 0.50000
vt 0.25000 0.50000
vt 0.25000 0.50000
vt 0.25000 0.50000
vt 0.25000 0.50000
vt 0.25000 0.50000
vt 0.25000 0.50000
vt 0.25000 0.50000
vt 0.25000 0.50000
vt 0.25000 0.50000
vt 0.25000 0.50000
vt 0.25000 0.50000
vt 0.25000 0.50000
vt 0.25000 0.50000
vt 0.25000 0.50000
vt 0.25000 0.50000
vt 0.25000 0.50000
vt 0.25000 0.50000
vt 0.25000 0.50000
vt 0.25000 0.50000
vt 0.25000 0.50000
vt 0.25000 0.50000
vt 0.25000 0.50000
vt 0.25000 0.50000
vt 0.25000 0.50000
vt 0.25000 0.50000
vt 0.25000 0.50000
vt 0.25000 0.50000
vt 0.25000 0.50000
vt 0.25000 0.50000
vt 0.25000 0.50000
vt 0.25000 0.50000
vt 0.25000 0.50000
vt 0.25000 0.50000
vt 0.25000 0.50000
vt 0.25000 0.50000
vt 0.50000 0.00000
vt 1.00000 0.00000
vt 1.00000 1.00000
vt 0.50000 1.00000
vt 0.50000 0.00000
vt 1.00000 0.00000
vt 1.00000 1.00000
vt 0.50000 1.00000
vt 0.50000 0.00000
vt 1.00000 0.00000
vt 1.00000 1.00000
vt 0.50000 1.00000
vt 0.50000 0.00000
vt 1.00000 0.00000
vt 1.00000 1.00000
vt 0.50000 1.00000
vt 0.50000 0.00000
vt 1.00000 0.00000
vt 1.00000 1.00000
vt 0.50000 1.00000
vt 0.50000 0.00000
vt 1.00000 0.00000
vt 1.00000 1.00000
vt 0.50000 1.00000
vt 0.50000 0.00000
vt 1.00000 0.00000
vt 1.00000 1.00000
vt 0.50000 1.00000
vt 0.50000 0.00000
vt 1.00000 0.00000
vt 1.00000 1.00000
vt 0.50000 1.00000
vn -0.9932 -0.0002 0.1164
vn -0.9932 -0.0002 0.1164
vn -0.9932 -0.0002 0.1164
vn -0.9932 -0.0002 0.1164
vn 0.0024 -0.9997 0.0247
vn 0.0024 -0.9997 0.0247
vn 0.0024 -0.9997 0.0247
vn 0.0024 -0.9997 0.0247
vn 0.9980 0.0001 -0.0640
vn 0.9980 0.0001 -0.0640
vn 0.9980 0.0001 -0.0640
vn 0.9980 0.0001 -0.0640
vn 0.0024 0.9996 0.0277
vn 0.0024 0.9996 0.0277
vn 0.0024 0.9996 0.0277
vn 0.0024 0.9996 0.0277
vn -0.9974 0.0048 0.0713
vn -0.9974 0.0048 0.0713
vn -0.9974 0.0048 0.0713
vn -0.9974 0.0048 0.0713
vn 0.0012 -0.9956 0.0934
vn 0.0012 -0.9956 0.0934
vn 0.0012 -0.9956 0.0934
vn 0.0012 -0.9956 0.0934
vn 0.9998 -0.0013 -0.0188
vn 0.9998 -0.0013 -0.0188
vn 0.9998 -0.0013 -0.0188
vn 0.9998 -0.0013 -0.0188
vn 0.0012 0.9992 -0.0409
vn 0.0012 0.9992 -0.0409
vn 0.0012 0.9992 -0.0409
vn 0.0012 0.9992 -0.0409
vn -0.9959 0.0112 0.0893
vn -0.9959 0.0112 0.0893
vn -0.9959 0.0112 0.0893
vn -0.9959 0.0112 0.0893
vn 0.0017 -0.9887 0.1498
vn 0.0017 -0.9887 0.1498
vn 0.0017 -0.9887 0.1498
vn 0.0017 -0.9887 0.1498
vn 0.9993 -0.0047 -0.0375
vn 0.9993 -0.0047 -0.0375
vn 0.9993 -0.0047 -0.0375
vn 0.9993 -0.0047 -0.0375
vn 0.0017 0.9952 -0.0980
vn 0.0017 0.9952 -0.0980
vn 0.0017 0.9952 -0.0980
vn 0.0017 0.9952 -0.0980
vn -0.9813 -0.0434 0.1876
vn -0.9813 -0.0434 0.1876
vn -0.9813 -0.0434 0.1876
vn -0.9813 -0.0434 0.1876
vn 0.0043 -0.9796 -0.2009
vn 0.0043 -0.9796 -0.2009
vn 0.0043 -0.9796 -0.2009
vn 0.0043 -0.9796 -0.2009
vn 0.9898 0.0321 -0.1389
vn 0.9898 0.0321 -0.1389
vn 0.9898 0.0321 -0.1389
vn 0.9898 0.0321 -0.1389
vn 0.0043 0.9683 0.2497
vn 0.0043 0.9683 0.2497
vn 0.0043 0.9683 0.2497
vn 0.0043 0.9683 0.2497
vn 0.3118 0.8867 -0.3414
vn 0.3118 0.8867 -0.3414
vn 0.3118 0.8867 -0.3414
vn 0.3118 0.8867 -0.3414
vn -0.9401 0.3401 0.0229
vn -0.9401 0.3401 0.0229
vn -0.9401 0.3401 0.0229
vn -0.9401 0.3401 0.0229
vn -0.3059 -0.8697 0.3873
vn -0.3059 -0.8697 0.3873
vn -0.3059 -0.8697 0.3873
vn -0.3059 -0.8697 0.3873
vn 0.9460 -0.3232 0.0229
vn 0.9460 -0.3232 0.0229
vn 0.9460 -0.3232 0.0229
vn 0.9460 -0.3232 0.0229
vn 0.4043 0.2098 -0.8902
vn 0.4043 0.2098 -0.8902
vn 0.4043 0.2098 -0.8902
vn 0.4043 0.2098 -0.8902
vn 0.4382 -0.8988 -0.0136
vn 0.4382 -0.8988 -0.0136
vn 0.4382 -0.8988 -0.0136
vn 0.4382 -0.8988 -0.0136
vn -0.4485 -0.2327 0.8630
vn -0.4485 -0.2327 0.8630
vn -0.4485 -0.2327 0.8630
vn -0.4485 -0.2327 0.8630
vn -0.4824 0.8759 -0.0136
vn -0.4824 0.8759 -0.0136
vn -0.4824 0.8759 -0.0136
vn -0.4824 0.8759 -0.0136
vn 0.1462 0.2210 -0.9643
vn 0.1462 0.2210 -0.9643
vn 0.1462 0.2210 -0.9643
vn 0.1462 0.2210 -0.9643
vn 0.8208 -0.5712 -0.0071
vn 0.8208 -0.5712 -0.0071
vn 0.8208 -0.5712 -0.0071
vn 0.8208 -0.5712 -0.0071
vn -0.1723 -0.2604 0.9500
vn -0.1723 -0.2604 0.9500
vn -0.1723 -0.2604 0.9500
vn -0.1723 -0.2604 0.9500
vn -0.8469 0.5318 -0.0071
vn -0.8469 0.5318 -0.0071
vn -0.8469 0.5318 -0.0071
vn -0.8469 0.5318 -0.0071
vn 0.4422 0.0665 -0.8945
vn 0.4422 0.0665 -0.8945
vn 0.4422 0.0665 -0.8945
vn 0.4422 0.0665 -0.8945
vn 0.1240 -0.9922 -0.0134
vn 0.1240 -0.9922 -0.0134
vn 0.1240 -0.9922 -0.0134
vn 0.1240 -0.9922 -0.0134
vn -0.4916 -0.0740 0.8677
vn -0.4916 -0.0740 0.8677
vn -0.4916 -0.0740 0.8677
vn -0.4916 -0.0740 0.8677
vn -0.1734 0.9848 -0.0134
vn -0.1734 0.9848 -0.0134
vn -0.1734 0.9848 -0.0134
vn -0.1734 0.9848 -0.0134
vn 0.1915 0.3978 -0.8973
vn 0.1915 0.3978 -0.8973
vn 0.1915 0.3978 -0.8973
vn 0.1915 0.3978 -0.8973
vn 0.8912 -0.4534 -0.0114
vn 0.8912 -0.4534 -0.0114
vn 0.8912 -0.4534 -0.0114
vn 0.8912 -0.4534 -0.0114
vn -0.2105 -0.4372 0.8744
vn -0.2105 -0.4372 0.8744
vn -0.2105 -0.4372 0.8744
vn -0.2105 -0.4372 0.8744
vn -0.9102 0.4140 -0.0114
vn -0.9102 0.4140 -0.0114
vn -0.9102 0.4140 -0.0114
vn -0.9102 0.4140 -0.0114
vn -0.3313 0.2042 -0.9212
vn -0.3313 0.2042 -0.9212
vn -0.3313 0.2042 -0.9212
vn -0.3313 0.2042 -0.9212
vn -0.5391 -0.8422 0.0069
vn -0.5391 -0.8422 0.0069
vn -0.5391 -0.8422 0.0069
vn -0.5391 -0.8422 0.0069
vn 0.3021 -0.1862 0.9349
vn 0.3021 -0.1862 0.9349
vn 0.3021 -0.1862 0.9349
vn 0.3021 -0.1862 0.9349
vn 0.5099 0.8602 0.0069
vn 0.5099 0.8602 0.0069
vn 0.5099 0.8602 0.0069
vn 0.5099 0.8602 0.0069
vn -0.9915 0.0134 0.1297
vn -0.9915 0.0134 0.1297
vn -0.9915 0.0134 0.1297
vn -0.9915 0.0134 0.1297
vn -0.0007 0.9941 -0.1080
vn -0.0007 0.9941 -0.1080
vn -0.0007 0.9941 -0.1080
vn -0.0007 0.9941 -0.1080
vn 0.9900 -0.0145 -0.1401
vn 0.9900 -0.0145 -0.1401
vn 0.9900 -0.0145 -0.1401
vn 0.9900 -0.0145 -0.1401
vn -0.0007 -0.9952 0.0976
vn -0.0007 -0.9952 0.0976
vn -0.0007 -0.9952 0.0976
vn -0.0007 -0.9952 0.0976
vn 0.0902 -0.0015 0.9959
vn 0.0902 -0.0015 0.9959
vn 0.0902 -0.0015 0.9959
vn 0.0902 -0.0015 0.9959
vn 0.0451 0.0671 0.9967
vn 0.0451 0.0671 0.9967
vn 0.0451 0.0671 0.9967
vn 0.0451 0.0671 0.9967
vn 0.0639 0.1237 0.9903
vn 0.0639 0.1237 0.9903
vn 0.0639 0.1237 0.9903
vn 0.0639 0.1237 0.9903
vn 0.1676 -0.2222 0.9605
vn 0.1676 -0.2222 0.9605
vn 0.1676 -0.2222 0.9605
vn 0.1676 -0.2222 0.9605
vn 0.1209 0.3438 0.9312
vn 0.1209 0.3438 0.9312
vn 0.1209 0.3438 0.9312
vn 0.1209 0.3438 0.9312
vn -0.7784 -0.4038 -0.4806
vn -0.7784 -0.4038 -0.4806
vn -0.7784 -0.4038 -0.4806
vn -0.7784 -0.4038 -0.4806
vn -0.5282 -0.7986 -0.2887
vn -0.5282 -0.7986 -0.2887
vn -0.5282 -0.7986 -0.2887
vn -0.5282 -0.7986 -0.2887
vn -0.8716 -0.1311 -0.4723
vn -0.8716 -0.1311 -0.4723
vn -0.8716 -0.1311 -0.4723
vn -0.8716 -0.1311 -0.4723
vn -0.3844 -0.7983 -0.4635
vn -0.3844 -0.7983 -0.4635
vn -0.3844 -0.7983 -0.4635
vn -0.3844 -0.7983 -0.4635
vn -0.7902 0.4870 0.3721
vn -0.7902 0.4870 0.3721
vn -0.7902 0.4870 0.3721
vn -0.7902 0.4870 0.3721
vn -0.1356 -0.1019 -0.9855
vn -0.1356 -0.1019 -0.9855
vn -0.1356 -0.1019 -0.9855
vn -0.1356 -0.1019 -0.9855
vn -0.5828 -0.8126 0.0000
vn -0.5828 -0.8126 0.0000
vn -0.5828 -0.8126 0.0000
vn -0.5828 -0.8126 0.0000
vn 0.4124 -0.9110 0.0000
vn 0.4124 -0.9110 0.0000
vn 0.4124 -0.9110 0.0000
vn 0.4124 -0.9110 0.0000
vn 0.9952 -0.0984 0.0000
vn 0.9952 -0.0984 0.0000
vn 0.9952 -0.0984 0.0000
vn 0.9952 -0.0984 0.0000
vn -0.5476 -0.8367 0.0000
vn -0.5476 -0.8367 0.0000
vn -0.5476 -0.8367 0.0000
vn -0.5476 -0.8367 0.0000
vn 0.4508 -0.8926 0.0000
vn 0.4508 -0.8926 0.0000
vn 0.4508 -0.8926 0.0000
vn 0.4508 -0.8926 0.0000
vn 0.9984 -0.0559 0.0000
vn 0.9984 -0.0559 0.0000
vn 0.9984 -0.0559 0.0000
vn 0.9984 -0.0559 0.0000
vn 0.0000 0.0000 1.0000
vn 0.0000 0.0000 1.0000
vn 0.0000 0.0000 1.0000
vn 0.0000 0.0000 1.0000
vn 0.0000 0.0000 1.0000
vn 0.0000 0.0000 1.0000
vn 0.0000 0.0000 1.0000
vn 0.0000 0.0000 1.0000
f 1/1/1 2/2/2 3/3/3
f 1/1/1 3/3/3 4/4/4
f 5/5/5 6/6/6 7/7/7
f 5/5/5 7/7/7 8/8/8
f 9/9/9 10/10/10 11/11/11
f 9/9/9 11/11/11 12/12/12
f 13/13/13 14/14/14 15/15/15
f 13/13/13 15/15/15 16/16/16
f 17/17/17 18/18/18 19/19/19
f 17/17/17 19/19/19 20/20/20
f 21/21/21 22/22/22 23/23/23
f 21/21/21 23/23/23 24/24/24
f 25/25/25 26/26/26 27/27/27
f 25/25/25 27/27/27 28/28/28
f 29/29/29 30/30/30 31/31/31
f 29/29/29 31/31/31 32/32/32
f 33/33/33 34/34/34 35/35/35
f 33/33/33 35/35/35 36/36/36
f 37/37/37 38/38/38 39/39/39
f 37/37/37 39/39/39 40/40/40
f 41/41/41 42/42/42 43/43/43
f 41/41/41 43/43/43 44/44/44
f 45/45/45 46/46/46 47/47/47
f 45/45/45 47/47/47 48/48/48
f 49/49/49 50/50/50 51/51/51
f 49/49/49 51/51/51 52/52/52
f 53/53/53 54/54/54 55/55/55
f 53/53/53 55/55/55 56/56/56
f 57/57/57 58/58/58 59/59/59
f 57/57/57 59/59/59 60/60/60
f 61/61/61 62/62/62 63/63/63
f 61/61/61 63/63/63 64/64/64
f 65/65/65 66/66/66 67/67/67
f 65/65/65 67/67/67 68/68/68
f 69/69/69 70/70/70 71/71/71
f 69/69/69 71/71/71 72/72/72
f 73/73/73 74/74/74 75/75/75
f 73/73/73 75/75/75 76/76/76
f 77/77/77 78/78/78 79/79/79
f 77/77/77 79/79/79 80/80/80
f 81/81/81 82/82/82 83/83/83
f 81/81/81 83/83/83 84/84/84
f 85/85/85 86/86/86 87/87/87
f 85/85/85 87/87/87 88/88/88
f 89/89/89 90/90/90 91/91/91
f 89/89/89 91/91/91 92/92/92
f 93/93/93 94/94/94 95/95/95
f 93/93/93 95/95/95 96/96/96
f 97/97/97 98/98/98 99/99/99
f 97/97/97 99/99/99 100/100/100
f 101/101/101 102/102/102 103/103/103
f 101/101/101 103/103/103 104/104/104
f 105/105/105 106/106/106 107/107/107
f 105/105/105 107/107/107 108/108/108
f 109/109/109 110/110/110 111/111/111
f 109/109/109 111/111/111 112/112/112
f 113/113/113 114/114/114 115/115/115
f 113/113/113 115/115/115 116/116/116
f 117/117/117 118/118/118 119/119/119
f 117/117/117 119/119/119 120/120/120
f 121/121/121 122/122/122 123/123/123
f 121/121/121 123/123/123 124/124/124
f 125/125/125 126/126/126 127/127/127
f 125/125/125 127/127/127 128/128/128
f 129/129/129 130/130/130 131/131/131
f 129/129/129 131/131/131 132/132/132
f 133/133/133 134/134/134 135/135/135
f 133/133/133 135/135/135 136/136/136
f 137/137/137 138/138/138 139/139/139
f 137/137/137 139/139/139 140/140/140
f 141/141/141 142/142/142 143/143/143
f 141/141/141 143/143/143 144/144/144
f 145/145/145 146/146/146 147/147/147
f 145/145/145 147/147/147 148/148/148
f 149/149/149 150/150/150 151/151/151
f 149/149/149 151/151/151 152/152/152
f 153/153/153 154/154/154 155/155/155
f 153/153/153 155/155/155 156/156/156
f 157/157/157 158/158/158 159/159/159
f 157/157/157 159/159/159 160/160/160
f 161/161/161 162/162/162 163/163/163
f 161/161/161 163/163/163 164/164/164
f 165/165/165 166/166/166 167/167/167
f 165/165/165 167/167/167 168/168/168
f 169/169/169 170/170/170 171/171/171
f 169/169/169 171/171/171 172/172/172
f 173/173/173 174/174/174 175/175/175
f 173/173/173 175/175/175 176/176/176
f 177/177/177 178/178/178 179/179/179
f 177/177/177 179/179/179 180/180/180
f 181/181/181 182/182/182 183/183/183
f 181/181/181 183/183/183 184/184/184
f 185/185/185 186/186/186 187/187/187
f 185/185/185 187/187/187 188/188/188
f 189/189/189 190/190/190 191/191/191
f 189/189/189 191/191/191 192/192/192
f 193/193/193 194/194/194 195/195/195
f 193/193/193 195/195/195 196/196/196
f 197/197/197 198/198/198 199/199/199
f 197/197/197 199/199/199 200/200/200
f 201/201/201 202/202/202 203/203/203
f 201/201/201 203/203/203 204/204/204
f 205/205/205 206/206/206 207/207/207
f 205/205/205 207/207/207 208/208/208
f 209/209/209 210/210/210 211/211/211
f 209/209/209 211/211/211 212/212/212
f 213/213/213 214/214/214 215/215/215
f 213/213/213 215/215/215 216/216/216
f 217/217/217 218/218/218 219/219/219
f 217/217/217 219/219/219 220/220/220
f 221/221/221 222/222/222 223/223/223
f 221/221/221 223/223/223 224/224/224
f 225/225/225 226/226/226 227/227/227
f 225/225/225 227/227/227 228/228/228
f 229/229/229 230/230/230 231/231/231
f 229/229/229 231/231/231 232/232/232
f 233/233/233 234/234/234 235/235/235
f 233/233/233 235/235/235 236/236/236
f 237/237/237 238/238/238 239/239/239
f 237/237/237 239/239/239 240/240/240
f 241/241/241 242/242/242 243/243/243
f 241/241/241 243/243/243 244/244/244
f 245/245/245 246/246/246 247/247/247
f 245/245/245 247/247/247 248/248/248
f 249/249/249 250/250/250 251/251/251
f 249/249/249 251/251/251 252/252/252
